<svg width="64" height="57" viewBox="0 0 64 57" fill="none" xmlns="http://www.w3.org/2000/svg">
<path d="M28.0959 10.4744C29.3752 6.96992 34.3316 6.96993 35.6109 10.4745L38.0455 17.144C38.6216 18.7223 40.1228 19.7724 41.803 19.7724H48.5966C52.5832 19.7724 54.1163 24.9663 50.7688 27.1312L46.1044 30.1477C44.5368 31.1614 43.8789 33.1246 44.519 34.8781L46.4836 40.2601C47.7995 43.8649 43.7764 47.0744 40.554 44.9905L34.0256 40.7686C32.7036 39.9137 31.0032 39.9137 29.6812 40.7686L23.1528 44.9905C19.9304 47.0744 15.9073 43.8649 17.2232 40.2601L19.1878 34.8781C19.8279 33.1246 19.17 31.1614 17.6024 30.1477L12.938 27.1312C9.59047 24.9663 11.1236 19.7724 15.1102 19.7724H21.9038C23.584 19.7724 25.0852 18.7223 25.6613 17.144L28.0959 10.4744Z" fill="#D9D9D9"/>
<path d="M28.6677 20.9648C29.8157 17.8763 34.1843 17.8763 35.3323 20.9648L36.8014 24.9171C36.908 25.2037 37.051 25.4753 37.227 25.7253L40.2056 29.9552C42.0065 32.5126 39.8651 35.9816 36.7718 35.5178L32.5271 34.8815C32.1777 34.8291 31.8223 34.8291 31.4729 34.8815L27.2282 35.5178C24.1349 35.9816 21.9935 32.5126 23.7944 29.9552L26.773 25.7253C26.949 25.4753 27.092 25.2037 27.1986 24.9171L28.6677 20.9648Z" fill="#2A2A2A"/>
</svg>
